<svg width="40" height="40" viewBox="0 0 24 20" fill="none" xmlns="http://www.w3.org/2000/svg">
<path d="M1 20V7.725C0.7 7.54167 0.458333 7.30433 0.275 7.013C0.0916667 6.72167 0 6.384 0 6C0 5.616 0.2 5.14933 0.6 4.6C1 4.05067 1.46667 3.51733 2 3C2.53333 3.51667 3 4.05 3.4 4.6C3.8 5.15 4 5.61667 4 6C4 6.38333 3.90833 6.721 3.725 7.013C3.54167 7.305 3.3 7.542 3 7.724V12H5V8.05H6.55C6.36667 7.76667 6.229 7.45833 6.137 7.125C6.045 6.79167 5.99933 6.45 6 6.1C6 5.43333 6.15833 4.81667 6.475 4.25C6.79167 3.68333 7.21667 3.21667 7.75 2.85L12 0L16.25 2.85C16.7833 3.21667 17.2083 3.68333 17.525 4.25C17.8417 4.81667 18 5.43333 18 6.1C18 6.45 17.9543 6.79167 17.863 7.125C17.7717 7.45833 17.634 7.76667 17.45 8.05H19V12H21V7.725C20.7 7.54167 20.4583 7.30433 20.275 7.013C20.0917 6.72167 20 6.384 20 6C20 5.616 20.2 5.14933 20.6 4.6C21 4.05067 21.4667 3.51733 22 3C22.5333 3.51667 23 4.05 23.4 4.6C23.8 5.15 24 5.61667 24 6C24 6.38333 23.9083 6.721 23.725 7.013C23.5417 7.305 23.3 7.54233 23 7.725V20H13V15H11V20H1ZM9.9 8H14.1C14.6333 8 15.0833 7.81667 15.45 7.45C15.8167 7.08333 16 6.63333 16 6.1C16 5.76667 15.925 5.46233 15.775 5.187C15.625 4.91167 15.4167 4.68267 15.15 4.5L12 2.4L8.85 4.5C8.58333 4.68333 8.375 4.91267 8.225 5.188C8.075 5.46333 8 5.76733 8 6.1C8 6.63333 8.18333 7.08333 8.55 7.45C8.91667 7.81667 9.36667 8 9.9 8ZM3 18H9V13H15V18H21V14H17V10H7V14H3V18Z" fill="white"/>
</svg>
