<svg width="39" height="52" viewBox="0 0 39 52" fill="none" xmlns="http://www.w3.org/2000/svg">
<path d="M38.2277 25.1597C38.0527 24.4099 37.9152 23.6675 37.8419 22.9C37.7702 22.1413 37.7238 21.3811 37.6132 20.6254C37.5011 19.8637 37.3052 19.1169 37.0899 18.3789C36.7445 17.1979 36.3872 16.0229 36.0299 14.8448C35.8759 14.0283 35.7084 13.2119 35.4797 12.4117C35.2913 11.7508 35.0611 11.1017 34.774 10.4764C34.5766 10.0497 34.1834 9.03461 33.5271 9.33098C33.3372 9.41692 33.1907 9.61104 33.0741 9.81405C32.9993 8.98571 32.9246 8.15738 32.8498 7.33052C32.8184 6.98822 32.8349 6.56146 32.5448 6.31993C32.2832 6.1021 31.9229 6.16433 31.6403 6.30807C31.1275 6.56739 30.7462 7.09788 30.51 7.62244C30.4786 7.36312 30.4487 7.10381 30.4173 6.84301C30.3874 6.60147 30.3754 6.33771 30.2304 6.13173C29.8865 5.63829 29.2556 5.9065 28.8893 6.2162C28.4826 6.5585 28.209 7.03416 28.0386 7.53057C27.8592 8.0581 27.8084 8.61822 27.7949 9.1739C27.7201 9.15612 27.6424 9.15464 27.5691 9.17094C27.5751 9.07462 27.5691 8.9783 27.5512 8.88199C27.4166 8.1885 26.6362 8.04772 26.0651 8.28926C26.0307 8.30408 25.9978 8.32186 25.9649 8.33816C26.4015 7.29496 26.8201 6.24583 27.2163 5.18485C27.4824 4.46914 27.8547 3.59931 27.321 2.90878C27.1012 2.62427 26.7723 2.47313 26.4134 2.51758C26.0352 2.56352 25.6719 2.77987 25.3624 2.99028C25.2129 3.09105 25.0708 3.20366 24.9378 3.32073C25.017 3.11476 25.0903 2.90582 25.1546 2.6954C25.2742 2.30124 25.3594 1.89818 25.4028 1.49069C25.4416 1.1143 25.4431 0.699395 25.2054 0.380805C24.7853 -0.17784 23.9704 -0.0578131 23.4741 0.318568C23.1526 0.561586 22.9164 0.890549 22.6697 1.20618C22.3946 1.56181 22.1195 1.91893 21.8429 2.27605C21.4886 2.73245 21.1358 3.19033 20.7814 3.64673C20.9234 3.21404 21.0416 2.77394 21.1313 2.32791C21.206 1.9619 21.2539 1.56181 21.0834 1.21359C20.9279 0.894995 20.5975 0.712731 20.2462 0.708286C19.4717 0.697913 18.8124 1.31731 18.304 1.82261C17.703 2.42127 17.2081 3.10883 16.8089 3.85122C16.6116 4.21871 16.4277 4.59509 16.1975 4.9448C15.9612 5.3034 15.6622 5.58494 15.3393 5.86797C15.0193 6.14655 14.7427 6.44884 14.5304 6.81633C14.3226 7.17641 14.1731 7.56465 14.0042 7.94251C13.3179 9.4836 12.1428 10.7031 11.0484 11.9642C10.5639 12.5243 10.0765 13.12 9.6639 13.7557C9.92105 13.0696 10.2515 12.4117 10.6701 11.8026C10.9302 11.4263 11.2248 11.078 11.5462 10.7506C11.8901 10.4008 12.2504 10.0674 12.5524 9.68217C13.1519 8.91903 13.5332 8.01512 13.8382 7.10381C14.0968 6.32733 14.2942 5.32414 13.6917 4.64547C13.3643 4.27946 12.9292 4.39801 12.6092 4.70474C12.2728 5.02778 11.9648 5.37008 11.606 5.67089C11.2293 5.98652 10.8271 6.27251 10.4055 6.5259C9.99581 6.7704 9.56372 6.97044 9.14659 7.20161C8.73245 7.42832 8.34821 7.6995 8.02527 8.04476C7.69187 8.39743 7.41976 8.80345 7.1641 9.21391C5.87084 11.2988 4.62543 13.4149 3.35609 15.5146C3.31572 15.5842 3.32021 15.6524 3.35161 15.7043C3.01073 16.4793 2.90457 17.3313 2.8672 18.1745C2.82085 19.2265 2.82832 20.2801 2.80291 21.3337C2.776 22.4154 2.73264 23.4971 2.63247 24.5744C2.53379 25.6265 2.40222 26.6949 2.11965 27.7144C1.85203 28.6805 1.30632 29.6985 0.277693 30.0231C0.196958 30.0483 0.153601 30.1046 0.137155 30.1683C0.0952921 30.2261 0.0758555 30.3031 0.111738 30.3846C1.50816 33.4757 3.73585 36.1193 6.22368 38.4087C6.57951 38.7361 6.93535 39.0636 7.30763 39.3689C7.6799 39.6741 8.08208 39.9438 8.55752 40.0564C8.62331 40.0727 8.67863 40.0564 8.72198 40.0268C8.72497 40.0238 8.72946 40.0224 8.73245 40.0209C8.78777 39.9838 8.84309 39.9468 8.89841 39.9083C9.34544 39.6104 9.78649 39.3022 10.2231 38.9866C10.7792 38.585 11.3279 38.1716 11.8662 37.7433C12.3401 37.3684 12.847 36.9209 13.1624 36.3875C13.1684 36.4201 13.1729 36.4541 13.1774 36.4867C13.2297 36.8113 13.288 37.1521 13.4151 37.4544C13.5736 37.8307 13.9384 38.013 14.3361 38.1093C14.6231 38.1805 14.9266 38.2071 15.1823 38.2308C16.6998 38.3731 18.2113 37.9745 19.6556 37.5566C22.5755 36.712 25.4371 35.6703 28.2165 34.4448C30.7941 33.3097 33.3925 32.068 35.6157 30.3224C36.16 29.8956 36.6788 29.4363 37.1587 28.9399C37.6162 28.4686 38.0752 27.9604 38.292 27.3306C38.5372 26.6223 38.3921 25.8621 38.2247 25.1538L38.2277 25.1597Z" fill="#01B7F1"/>
<path d="M13.8816 33.2164C12.8709 34.9324 11.3235 36.4794 9.8478 37.3536C9.36638 37.6396 8.86403 37.8856 8.34523 38.0945C8.22413 38.1434 8.26599 38.3331 8.37962 38.3613C8.93131 38.4902 9.49496 38.6206 10.0063 38.8695C10.081 38.9051 10.1543 38.9451 10.2261 38.9881C10.7822 38.5865 11.3309 38.1731 11.8692 37.7448C12.3431 37.3699 12.8499 36.9224 13.1654 36.389C13.1714 36.4216 13.1759 36.4557 13.1804 36.4883C13.1923 36.432 13.2043 36.3742 13.2133 36.3178C13.3433 35.617 13.4734 34.9175 13.6035 34.2166C13.7934 33.9381 13.9713 33.6521 14.1357 33.3557C14.2269 33.1942 13.9773 33.0519 13.8816 33.2134V33.2164Z" fill="white"/>
<path d="M10.7822 18.013C10.5849 17.5684 10.3262 17.1268 9.93599 16.8216C9.66388 16.6082 9.36337 16.5045 9.04491 16.4719C9.32898 15.2049 9.71771 13.9587 10.2126 12.757C10.3322 12.468 10.5086 12.1731 10.5819 11.8694C10.6521 11.5834 10.5131 11.3492 10.3636 11.1151C10.0795 10.6676 9.70425 10.2557 9.172 10.1178C8.91484 10.0512 8.80869 10.4468 9.06734 10.5135C9.54128 10.6365 9.84927 11.0499 10.0855 11.4485C10.1603 11.576 10.2141 11.6708 10.1662 11.8219C10.1214 11.9612 10.0481 12.0961 9.98981 12.2309C9.87768 12.4917 9.76854 12.7555 9.66538 13.0207C9.23479 14.1247 8.89092 15.2597 8.63376 16.4156C8.62928 16.4333 8.62778 16.4511 8.62928 16.4674C8.56499 16.4719 8.5007 16.4778 8.43491 16.4867C7.2194 16.6408 6.01436 16.9727 4.86911 17.3995C4.62242 17.4914 4.72559 17.8885 4.97377 17.7951C6.02482 17.4039 7.11325 17.112 8.22112 16.9298C8.73094 16.8468 9.25423 16.8023 9.68182 17.1417C10.0272 17.4173 10.2455 17.8203 10.4219 18.216C10.5295 18.4575 10.8884 18.253 10.7807 18.013H10.7822Z" fill="white"/>
<path d="M18.4177 16.1118C18.0035 15.7917 17.561 15.5339 17.0811 15.325C16.628 15.1294 16.2498 14.913 15.9747 14.4951C15.8521 14.3084 15.7504 14.1099 15.6547 13.9083C15.6099 13.8135 15.574 13.6712 15.4873 13.6046C15.3976 13.5364 15.2406 13.5334 15.1315 13.5082C14.659 13.3986 14.2 13.2386 13.7634 13.0281C13.2581 12.7836 12.7842 12.4784 12.3566 12.1168C12.1562 11.9464 11.8617 12.2354 12.065 12.4058C12.9696 13.1719 14.0535 13.7038 15.2197 13.9424C15.4679 14.4833 15.7504 15.0241 16.2588 15.3679C16.5443 15.5606 16.8762 15.6702 17.1842 15.8184C17.5176 15.9799 17.8361 16.174 18.1276 16.4008C18.3339 16.5608 18.63 16.2733 18.4192 16.1118H18.4177Z" fill="white"/>
<path d="M24.3876 4.06463C24.2829 4.00535 24.1708 4.05129 24.1065 4.14168C23.6176 4.83221 23.2363 5.5909 22.9687 6.39256C22.885 6.64299 23.2857 6.74671 23.3679 6.49629C23.6236 5.72871 23.9958 5.00558 24.4653 4.34321C24.5296 4.25282 24.4773 4.11501 24.3876 4.06314V4.06463Z" fill="white"/>
<path d="M22.7549 7.0653C22.0433 8.23149 21.354 9.41102 20.6872 10.6024C20.0383 11.7641 19.367 12.9303 18.8333 14.1484C18.5417 14.8122 18.304 15.4983 18.1799 16.214C18.1351 16.4719 18.5343 16.5786 18.5791 16.3178C18.7974 15.0538 19.373 13.9009 19.9711 12.7762C20.6005 11.5893 21.2538 10.4142 21.9281 9.25246C22.3154 8.58565 22.7101 7.92327 23.1122 7.26535C23.2498 7.04011 22.891 6.8371 22.7534 7.06234L22.7549 7.0653Z" fill="white"/>
<path d="M19.4029 6.16585C19.068 6.64596 18.7316 7.1231 18.4012 7.60617C18.0843 8.0685 17.7852 8.54564 17.5729 9.06576C17.4698 9.31915 17.3875 9.58143 17.2739 9.83038C17.1588 10.0808 17.0168 10.3179 16.8717 10.5535C16.5832 11.0232 16.323 11.4989 16.0913 11.9998C15.8341 12.5584 15.586 13.123 15.2436 13.6386C15.0986 13.8594 15.4574 14.061 15.6024 13.8417C16.2064 12.9274 16.5428 11.8723 17.1169 10.9388C17.4055 10.469 17.6567 10.0067 17.848 9.49104C18.0454 8.95463 18.319 8.46563 18.636 7.99144C19.0008 7.44465 19.385 6.90972 19.7618 6.37034C19.9128 6.15399 19.5524 5.95247 19.4029 6.16733V6.16585Z" fill="white"/>
<path d="M20.9025 4.51658C20.889 4.46768 20.8517 4.41433 20.8053 4.39062C20.7156 4.34469 20.5676 4.36099 20.5227 4.46768C20.4644 4.60697 20.3957 4.74329 20.3194 4.87518C20.2805 4.94038 20.2402 5.00409 20.1968 5.06781C20.1759 5.09893 20.1534 5.13005 20.131 5.16117C20.1206 5.17598 20.1101 5.19377 20.0966 5.2071C20.14 5.16265 20.0966 5.2071 20.0862 5.21896C20.0503 5.26341 20.0264 5.3049 20.0264 5.36417C20.0264 5.41456 20.0488 5.47383 20.0862 5.50939C20.1609 5.57756 20.3074 5.59978 20.3777 5.50939C20.5825 5.25156 20.7545 4.97446 20.8816 4.67217C20.9025 4.6203 20.9159 4.57585 20.901 4.51954L20.9025 4.51658Z" fill="white"/>
<path d="M25.7989 12.5036C24.9153 15.0864 24.0452 17.6736 23.187 20.2638C22.9598 20.9484 22.734 21.6345 22.5097 22.3206C22.4903 22.3428 22.4753 22.3695 22.4664 22.4051C21.9027 24.6308 20.004 26.1452 18.4356 27.6937C16.8912 29.2155 15.3258 30.8084 14.1985 32.6696C13.599 33.6609 13.14 34.7412 12.9396 35.8837C12.8948 36.1415 13.294 36.2482 13.3388 35.9874C13.7021 33.9247 14.9027 32.148 16.2558 30.5877C16.9958 29.7341 17.7837 28.9206 18.5851 28.1249C19.4164 27.2995 20.2985 26.5201 21.0759 25.6414C21.8579 24.7567 22.5277 23.7535 22.8402 22.6096C22.8521 22.5933 22.8611 22.5755 22.8686 22.5532C23.7193 19.9601 24.5819 17.3713 25.4581 14.7856C25.7048 14.0595 25.9514 13.3334 26.1996 12.6073C26.2848 12.3569 25.8857 12.2546 25.8004 12.5036H25.7989Z" fill="white"/>
<path d="M33.7454 25.3035C33.4942 24.7641 32.8767 24.5715 32.328 24.487C31.8212 24.4085 31.0796 24.3951 30.7941 23.8884C30.7343 23.7817 30.6999 23.6616 30.6401 23.5535C30.6251 20.1453 30.9929 16.7223 30.4517 13.3349C30.3007 12.3924 30.1138 11.45 30.1751 10.4898C30.1915 10.226 29.7789 10.2275 29.7624 10.4898C29.7101 11.3285 29.8417 12.1598 29.9777 12.9852C30.1183 13.8328 30.2289 14.6804 30.2827 15.5383C30.3904 17.2409 30.3321 18.948 30.2797 20.6521C30.2543 21.5086 30.2304 22.3651 30.2289 23.2215C30.2259 23.2215 30.2229 23.2186 30.2199 23.2171C29.8566 23.0748 29.4784 22.9622 29.1031 22.86C28.7189 22.7548 28.3286 22.6718 27.9324 22.6199C27.6095 22.577 27.2866 22.5577 26.9726 22.4732C26.992 22.4451 27.004 22.4095 27.0055 22.3665C27.0548 20.7677 27.5676 19.2399 27.8577 17.6781C28.0027 16.8927 28.082 16.1014 28.0535 15.3027C28.0251 14.4833 27.9145 13.6698 27.8412 12.8533C27.759 11.936 27.7216 11.0069 27.9085 10.1001C27.9623 9.84223 27.5617 9.73702 27.5093 9.99633C27.1714 11.6323 27.5183 13.2756 27.6215 14.916C27.6723 15.725 27.6364 16.5267 27.5019 17.3269C27.3673 18.1211 27.167 18.9035 26.989 19.6889C26.7902 20.5632 26.6227 21.4463 26.5928 22.3428C26.2624 22.2184 25.947 22.0968 25.5837 22.0583C25.1441 22.0124 24.7001 22.0568 24.262 22.1013C24.0003 22.128 23.9974 22.5384 24.262 22.5103C24.6388 22.4717 25.017 22.4332 25.3968 22.4525C25.772 22.4717 26.1084 22.5799 26.4538 22.7207C26.7947 22.86 27.1296 22.9385 27.4959 22.9785C27.8756 23.0215 28.2494 23.0748 28.6217 23.1608C28.9895 23.2467 29.3513 23.3534 29.7101 23.472C29.8641 23.5224 30.0764 23.5609 30.2065 23.6631C30.3231 23.755 30.3515 23.9239 30.4143 24.0514C30.67 24.5641 31.2755 24.7449 31.8032 24.8264C32.3505 24.9123 33.1174 24.9301 33.3866 25.5065C33.4987 25.7466 33.856 25.5421 33.7454 25.3035Z" fill="white"/>
<path d="M30.2633 8.31004C30.1601 8.28781 30.033 8.34412 30.0106 8.45673C29.9538 8.7531 29.9119 9.05094 29.885 9.35175C29.8761 9.45844 29.9867 9.56069 30.0914 9.55624C30.211 9.5518 30.2872 9.46585 30.2977 9.35175C30.3037 9.28062 30.3111 9.21098 30.3186 9.13985C30.3216 9.10725 30.3246 9.07465 30.3306 9.04205C30.3231 9.08799 30.3306 9.03909 30.3321 9.02872C30.3351 9.00945 30.3366 8.99019 30.3395 8.97241C30.359 8.8346 30.3829 8.69679 30.4083 8.56046C30.4292 8.45525 30.3754 8.33523 30.2603 8.31004H30.2633Z" fill="white"/>
<path d="M34.2043 15.7606C33.9726 15.7591 33.7469 15.7325 33.5241 15.6732C33.4419 15.651 33.2998 15.6332 33.234 15.5739C33.1727 15.5176 33.1952 15.4139 33.1937 15.3338C33.1892 14.9071 33.1174 14.4818 33.0247 14.0654C32.8333 13.2134 32.5448 12.3732 32.5717 11.49C32.5792 11.2262 32.1665 11.2262 32.1591 11.49C32.1277 12.4902 32.482 13.4356 32.6749 14.4047C32.7242 14.6522 32.7616 14.9012 32.775 15.1545C32.7855 15.3605 32.7451 15.6021 32.8662 15.7843C32.9844 15.9607 33.2251 16.0199 33.4179 16.0718C33.6736 16.14 33.9397 16.1711 34.2043 16.174C34.4705 16.1755 34.4705 15.7665 34.2043 15.7651V15.7606Z" fill="white"/>
<path d="M34.8413 15.7547C34.5751 15.7547 34.5751 16.1637 34.8413 16.1637C35.1074 16.1637 35.1074 15.7547 34.8413 15.7547Z" fill="white"/>
<path d="M33.7005 19.3644C33.6437 18.8161 33.4927 18.2856 33.3835 17.7477C33.2505 17.0928 33.1742 16.4274 33.1488 15.7606C33.1383 15.4968 32.7257 15.5117 32.7362 15.7754C32.7586 16.3563 32.8214 16.9342 32.9201 17.5077C33.0157 18.0619 33.1787 18.6042 33.2594 19.1599C33.4224 20.2683 33.2146 21.3841 33.1114 22.4866C33.0531 23.1178 33.0292 23.7535 33.1174 24.3833C33.1533 24.6426 33.5674 24.6308 33.5301 24.3685C33.3731 23.2556 33.5749 22.1443 33.6766 21.0359C33.7274 20.4802 33.7573 19.9201 33.699 19.3644H33.7005Z" fill="white"/>
<path d="M11.4984 19.5748C11.4475 19.3259 11.3488 19.0828 11.2098 18.868C11.1515 18.7776 11.0259 18.7302 10.9287 18.7909C10.8375 18.8472 10.7882 18.9732 10.851 19.071C10.9093 19.1629 10.9601 19.2577 11.002 19.3585C11.0424 19.4622 11.0752 19.5703 11.0977 19.68C11.1186 19.7852 11.2472 19.8578 11.3503 19.8267C11.4625 19.7926 11.5208 19.6889 11.4984 19.5763V19.5748Z" fill="white"/>
<path d="M11.7077 20.6965C11.6628 20.4357 11.2636 20.5424 11.3085 20.8003C11.6853 22.9696 11.3264 25.2531 10.3277 27.2165C10.0436 27.7766 9.70724 28.3086 9.32599 28.808C9.25871 28.8969 9.31702 29.0362 9.40374 29.0881C9.50989 29.1503 9.61903 29.0984 9.68482 29.011C11.0738 27.1913 11.8363 24.9256 11.8662 22.6466C11.8751 21.9931 11.8198 21.3411 11.7077 20.6965Z" fill="white"/>
<path d="M12.4044 25.6339C12.2878 25.6028 12.1921 25.6769 12.1517 25.7806C11.8856 26.4786 11.4954 27.1321 11.0065 27.6981C10.9347 27.7826 10.9228 27.9056 11.0065 27.9871C11.0812 28.0612 11.2263 28.0715 11.298 27.9871C11.8378 27.3617 12.2579 26.6534 12.5509 25.8829C12.5898 25.7792 12.5031 25.6591 12.4029 25.6325L12.4044 25.6339Z" fill="white"/>
<path d="M12.7094 24.7656C12.7094 24.7656 12.7094 24.7597 12.7079 24.7567C12.7079 24.7538 12.7064 24.7508 12.7049 24.7478C12.6989 24.73 12.6914 24.7123 12.684 24.696C12.684 24.696 12.684 24.693 12.6825 24.6915C12.669 24.6663 12.6511 24.6456 12.6272 24.6308C12.6062 24.613 12.5823 24.5996 12.5554 24.5937C12.5285 24.5863 12.5031 24.5848 12.4762 24.5908C12.4492 24.5908 12.4238 24.5996 12.3999 24.6145C12.385 24.6248 12.37 24.6367 12.3565 24.6471C12.3296 24.6737 12.3117 24.7049 12.3027 24.7404C12.3012 24.7582 12.2982 24.7745 12.2967 24.7923C12.2967 24.7952 12.2967 24.7967 12.2967 24.7997C12.2848 24.8175 12.2743 24.8353 12.2698 24.8575C12.2624 24.8842 12.2609 24.9093 12.2668 24.936C12.2668 24.9627 12.2758 24.9879 12.2908 25.0116L12.3237 25.0546C12.3506 25.0812 12.382 25.099 12.4178 25.1079C12.4358 25.1109 12.4522 25.1124 12.4702 25.1153C12.5061 25.1153 12.5404 25.1064 12.5718 25.0886C12.5748 25.0872 12.5763 25.0857 12.5793 25.0827C12.5958 25.0709 12.6137 25.059 12.6287 25.0442C12.6302 25.0427 12.6331 25.0397 12.6346 25.0383C12.6346 25.0383 12.6361 25.0353 12.6376 25.0353C12.6496 25.0205 12.6615 25.0042 12.6735 24.9894C12.6765 24.9849 12.6795 24.979 12.6825 24.9745C12.6929 24.9538 12.7019 24.9331 12.7079 24.9108C12.7139 24.8901 12.7154 24.8634 12.7184 24.8441C12.7184 24.8382 12.7184 24.8323 12.7184 24.8264C12.7169 24.8071 12.7139 24.7864 12.7109 24.7671L12.7094 24.7656Z" fill="white"/>
<path d="M17.6955 22.8066C15.9418 21.07 15.0268 18.5879 15.1494 16.1414C15.1838 15.4465 15.3079 14.7589 15.5142 14.0936C15.5919 13.8417 15.1927 13.7379 15.115 13.9898C14.354 16.4437 14.7352 19.1955 16.0629 21.393C16.4367 22.0124 16.8882 22.5873 17.404 23.0971C17.5924 23.2838 17.8839 22.9948 17.6955 22.8081V22.8066Z" fill="white"/>
<path d="M18.2607 16.0703C17.7613 16.1044 17.2799 16.3311 16.954 16.7119C16.8837 16.7934 16.8672 16.9223 16.954 17.0009C17.0317 17.0705 17.1707 17.0883 17.2455 17.0009C17.3143 16.9194 17.3905 16.8453 17.4743 16.7801C17.4757 16.7801 17.4847 16.7727 17.4907 16.7682C17.4997 16.7623 17.5116 16.7534 17.5116 16.7534C17.5311 16.7401 17.552 16.7253 17.5729 16.7134C17.6193 16.6838 17.6671 16.6571 17.715 16.6319C17.7374 16.6215 17.7583 16.6097 17.7807 16.6008C17.7942 16.5949 17.8092 16.5889 17.8226 16.583C17.8719 16.5652 17.9198 16.5474 17.9706 16.5341C18.023 16.5193 18.0768 16.5074 18.1306 16.4971C18.1426 16.4956 18.1545 16.4926 18.1665 16.4911C18.1695 16.4911 18.1725 16.4911 18.1754 16.4911C18.2039 16.4882 18.2323 16.4852 18.2592 16.4837C18.3668 16.4763 18.4715 16.3948 18.4655 16.2792C18.461 16.174 18.3743 16.0659 18.2592 16.0747L18.2607 16.0703Z" fill="white"/>
<path d="M16.6923 17.9581C16.7312 17.927 16.7521 17.8603 16.7521 17.8129C16.7521 17.7625 16.7297 17.7033 16.6923 17.6677C16.6535 17.6321 16.6011 17.6055 16.5458 17.6084C16.5279 17.6099 16.5114 17.6129 16.4935 17.6158C16.4576 17.6247 16.4262 17.6425 16.3993 17.6692C16.3141 17.7373 16.2423 17.8263 16.1885 17.9211C16.1347 18.0144 16.0943 18.1211 16.0793 18.2278C16.0719 18.2827 16.0704 18.3316 16.0988 18.3805C16.1242 18.4249 16.175 18.4664 16.2259 18.4768C16.2767 18.4871 16.335 18.4857 16.3799 18.4575C16.4232 18.4294 16.4696 18.3849 16.477 18.3316C16.4845 18.2827 16.498 18.2352 16.5144 18.1878C16.5338 18.1463 16.5563 18.1063 16.5817 18.0693C16.6146 18.0293 16.649 17.9907 16.6893 17.9581H16.6923Z" fill="white"/>
<path d="M9.21983 35.6169C8.75485 34.8286 8.19569 34.0966 7.55429 33.4416C7.3689 33.252 7.07735 33.5424 7.26275 33.7306C7.87873 34.3618 8.41397 35.0613 8.861 35.8185C8.99556 36.0467 9.35438 35.8437 9.21983 35.6155V35.6169Z" fill="white"/>
<path d="M9.73715 36.4156C9.69978 36.346 9.6624 36.2763 9.62652 36.2082C9.61306 36.183 9.59512 36.1622 9.5712 36.1474C9.55027 36.1296 9.52635 36.1163 9.49944 36.1104C9.47252 36.103 9.44711 36.1015 9.42019 36.1074C9.39328 36.1074 9.36787 36.1163 9.34395 36.1311C9.32899 36.1415 9.31404 36.1534 9.30059 36.1637C9.27368 36.1904 9.25573 36.2215 9.24676 36.2571C9.24527 36.2749 9.24228 36.2912 9.24078 36.3089C9.24078 36.3445 9.24975 36.3786 9.2677 36.4097C9.30507 36.4794 9.34245 36.549 9.37833 36.6172C9.39179 36.6424 9.40973 36.6631 9.43365 36.6779C9.45458 36.6957 9.4785 36.709 9.50541 36.715C9.53233 36.7224 9.55774 36.7239 9.58466 36.7179C9.61157 36.7179 9.63698 36.709 9.6609 36.6942L9.70426 36.6616C9.73117 36.6349 9.74912 36.6038 9.75809 36.5683C9.76108 36.5505 9.76257 36.5342 9.76556 36.5164C9.76556 36.4808 9.75659 36.4468 9.73865 36.4156H9.73715Z" fill="white"/>
<path d="M25.2547 9.39176C24.5087 11.1003 23.6774 12.7733 22.7639 14.4003C22.3154 15.1975 21.8414 15.9755 21.517 16.832C21.3555 17.2572 21.218 17.6914 21.046 18.1137C20.8801 18.5168 20.6558 18.8917 20.4884 19.2933C20.2028 19.9793 20.1654 20.9618 20.9414 21.3559C21.1776 21.476 21.3839 21.1203 21.1462 21.0003C20.4794 20.6625 20.7066 19.7793 20.9578 19.2532C21.1372 18.8783 21.3301 18.5138 21.4841 18.1256C21.6396 17.7329 21.7682 17.3313 21.9177 16.9372C22.2257 16.1251 22.6847 15.3872 23.1093 14.6315C23.5369 13.8713 23.9465 13.0993 24.3382 12.3198C24.7883 11.4233 25.2144 10.5135 25.615 9.59477C25.7197 9.3562 25.3609 9.15023 25.2562 9.39176H25.2547Z" fill="white"/>
<path d="M21.8324 21.5975C21.8205 21.5738 21.8085 21.5515 21.7981 21.5278C21.7846 21.5026 21.7667 21.4819 21.7427 21.4671C21.7218 21.4493 21.6979 21.436 21.671 21.43C21.6441 21.4226 21.6186 21.4211 21.5917 21.4271C21.5648 21.4271 21.5394 21.436 21.5155 21.4508L21.4721 21.4834C21.4452 21.5101 21.4273 21.5412 21.4183 21.5767C21.4168 21.5945 21.4138 21.6108 21.4123 21.6286C21.4123 21.6642 21.4213 21.6982 21.4392 21.7294C21.4512 21.7531 21.4632 21.7753 21.4736 21.799C21.4871 21.8242 21.505 21.8449 21.5289 21.8598C21.5499 21.8775 21.5738 21.8909 21.6007 21.8968C21.6276 21.9042 21.653 21.9057 21.6799 21.8998C21.7069 21.8998 21.7323 21.8909 21.7562 21.8761C21.7711 21.8657 21.7861 21.8538 21.7996 21.8435C21.8265 21.8168 21.8444 21.7857 21.8534 21.7501C21.8549 21.7323 21.8579 21.716 21.8594 21.6982C21.8594 21.6627 21.8504 21.6286 21.8324 21.5975Z" fill="white"/>
<path d="M20.2297 18.5257C20.0698 18.3064 19.8799 18.1093 19.7124 17.8959C19.533 17.6677 19.3745 17.4232 19.228 17.1728C19.095 16.9446 18.7361 17.1461 18.8692 17.3758C19.1398 17.8426 19.4792 18.2412 19.8171 18.659C20.1445 19.0651 20.2058 19.5629 20.2507 20.0638C20.2731 20.3246 20.6872 20.3276 20.6633 20.0638C20.6155 19.5289 20.5557 18.9747 20.2297 18.5257Z" fill="white"/>
<path d="M22.3258 12.5999C22.1464 12.3258 21.9027 12.0961 21.6127 11.939C21.5185 11.8871 21.3824 11.9168 21.3316 12.0161C21.2807 12.1139 21.3077 12.2398 21.4093 12.2961C21.4781 12.3332 21.5439 12.3761 21.6082 12.4221C21.7203 12.5095 21.822 12.6103 21.9102 12.7214C21.9296 12.7481 21.9491 12.7747 21.9685 12.8029C22.0268 12.8933 22.1524 12.9407 22.2496 12.88C22.3393 12.8236 22.3901 12.6962 22.3273 12.5999H22.3258Z" fill="white"/>
<path d="M22.7041 12.9837C22.438 12.9837 22.438 13.3927 22.7041 13.3927C22.9702 13.3927 22.9702 12.9837 22.7041 12.9837Z" fill="white"/>
<path d="M22.2032 13.6579C22.1883 13.609 22.1554 13.5527 22.1061 13.532C21.979 13.4786 21.8594 13.4104 21.7472 13.3289C21.665 13.2637 21.5888 13.1926 21.5185 13.1141C21.4467 13.0326 21.2972 13.037 21.2269 13.1141C21.1462 13.2015 21.1507 13.3171 21.2269 13.403C21.4093 13.612 21.6441 13.7824 21.9012 13.8891C21.9536 13.9098 21.9999 13.9232 22.0552 13.9083C22.1046 13.895 22.1584 13.858 22.1823 13.812C22.2062 13.7661 22.2182 13.7098 22.2017 13.6594L22.2032 13.6579Z" fill="white"/>
<path d="M19.4762 10.961C19.3925 10.9254 19.3132 10.8825 19.237 10.8351C19.2175 10.8232 19.1981 10.8099 19.1787 10.7965C19.1712 10.7906 19.1637 10.7862 19.1562 10.7802C19.1233 10.7521 19.089 10.7254 19.0561 10.6972C18.9918 10.638 18.9305 10.5743 18.8767 10.5061C18.8767 10.5061 18.8767 10.5061 18.8782 10.5091C18.8737 10.5002 18.8662 10.4928 18.8602 10.4839C18.8468 10.4646 18.8333 10.4468 18.8213 10.4276C18.7959 10.389 18.772 10.349 18.7496 10.309C18.6972 10.2157 18.5612 10.1742 18.4685 10.232C18.3728 10.2912 18.3354 10.4113 18.3907 10.512C18.5851 10.8647 18.9021 11.1581 19.2743 11.3181C19.3252 11.3404 19.373 11.3522 19.4283 11.3374C19.4777 11.3241 19.5315 11.287 19.5554 11.2411C19.6018 11.1507 19.5838 11.0069 19.4777 10.9625L19.4762 10.961Z" fill="white"/>
<path d="M18.8747 10.5045C18.8516 10.4632 18.8631 10.4898 18.8747 10.5045V10.5045Z" fill="white"/>
<path d="M19.7991 10.0334L19.7662 9.99041C19.7393 9.96374 19.7079 9.94596 19.6721 9.93707C19.6377 9.92521 19.6018 9.91336 19.5674 9.9015C19.5405 9.89409 19.5151 9.89261 19.4882 9.89854C19.4612 9.89854 19.4358 9.90743 19.4119 9.92225C19.3865 9.93558 19.3656 9.95337 19.3506 9.97708C19.3327 9.99782 19.3192 10.0215 19.3132 10.0482C19.3117 10.066 19.3087 10.0823 19.3073 10.1001C19.3073 10.1356 19.3162 10.1697 19.3342 10.2008C19.3446 10.2156 19.3566 10.2305 19.3671 10.2438C19.394 10.2705 19.4254 10.2883 19.4612 10.2971C19.4956 10.309 19.5315 10.3209 19.5659 10.3327C19.5928 10.3401 19.6182 10.3416 19.6451 10.3357C19.6721 10.3357 19.6975 10.3268 19.7214 10.312C19.7468 10.2986 19.7677 10.2808 19.7827 10.2571C19.8006 10.2364 19.8141 10.2127 19.8201 10.186C19.8231 10.1682 19.8246 10.1519 19.826 10.1341C19.826 10.0986 19.8171 10.0645 19.7991 10.0334Z" fill="white"/>
<path d="M22.6742 6.34662C22.6338 6.30958 22.5905 6.29476 22.5381 6.28883C22.5411 6.28883 22.5456 6.28883 22.5486 6.28883C22.417 6.27105 22.2885 6.23845 22.1659 6.19103C22.1225 6.17177 22.0792 6.15251 22.0373 6.13176C21.9416 6.08138 21.807 6.10805 21.7562 6.20881C21.7069 6.30513 21.7323 6.43405 21.834 6.48888C22.0522 6.60446 22.2855 6.67114 22.5307 6.69781C22.58 6.70374 22.6428 6.67114 22.6772 6.63854C22.7131 6.60298 22.74 6.54519 22.737 6.49332C22.734 6.43998 22.7176 6.38515 22.6772 6.3481L22.6742 6.34662Z" fill="white"/>
<path d="M19.2833 6.31106C18.7197 6.23697 18.2203 5.98209 17.8391 5.57459C17.7628 5.49309 17.6238 5.49902 17.5475 5.57459C17.4653 5.65609 17.4713 5.78205 17.5475 5.86355C17.9721 6.31847 18.5582 6.6252 19.1787 6.7067C19.2893 6.72152 19.3999 6.67707 19.4313 6.56C19.4568 6.46368 19.3955 6.32439 19.2833 6.30958V6.31106Z" fill="white"/>
<path d="M16.5951 8.41227C16.5862 8.37671 16.5682 8.34559 16.5413 8.31892C16.4082 8.16185 16.2243 8.04923 16.027 7.98699C15.9792 7.97218 15.9149 7.98255 15.873 8.00626C15.8282 8.03145 15.7863 8.08183 15.7758 8.13221C15.7654 8.18259 15.7669 8.24038 15.7953 8.28484C15.8252 8.33226 15.867 8.36486 15.9223 8.38116C15.9358 8.3856 15.9478 8.39005 15.9612 8.39449C16.021 8.41968 16.0763 8.45228 16.1287 8.48933C16.172 8.52489 16.2124 8.56342 16.2498 8.60639C16.2827 8.64492 16.3469 8.66567 16.3963 8.66567C16.4456 8.66567 16.5069 8.64344 16.5428 8.60639C16.5787 8.56787 16.6056 8.516 16.6026 8.46117C16.6011 8.44339 16.5981 8.42709 16.5966 8.40931L16.5951 8.41227Z" fill="white"/>
<path d="M16.3021 9.1843C16.2886 9.17986 16.2767 9.17393 16.2632 9.16948C16.2393 9.15911 16.2154 9.14874 16.1915 9.13837C16.1406 9.11614 16.0913 9.09095 16.0434 9.06576C15.9492 9.01538 15.8566 8.95907 15.7698 8.89683C15.7609 8.88942 15.7504 8.88349 15.7414 8.87608C15.7384 8.8746 15.7265 8.86423 15.719 8.85978C15.7145 8.85682 15.71 8.85238 15.7085 8.85238C15.6966 8.84348 15.6861 8.83459 15.6742 8.8257C15.6338 8.7931 15.5949 8.75902 15.556 8.72346C15.4753 8.64937 15.3991 8.56935 15.3288 8.48488C15.26 8.4019 15.1075 8.40783 15.0372 8.48488C14.9565 8.57231 14.9625 8.68641 15.0372 8.77384C15.3467 9.13985 15.7504 9.4125 16.1989 9.58143C16.3006 9.61996 16.4292 9.53549 16.4516 9.43473C16.477 9.31618 16.4127 9.22579 16.3036 9.1843H16.3021Z" fill="white"/>
<path d="M23.0764 17.029C23.0674 16.9935 23.0495 16.9624 23.0225 16.9357C22.9642 16.8897 22.9059 16.8423 22.8476 16.7964C22.8282 16.7756 22.8058 16.7608 22.7789 16.7534C22.7549 16.7416 22.7295 16.7356 22.7011 16.7371C22.6742 16.7371 22.6473 16.7416 22.6234 16.7534C22.5964 16.7623 22.574 16.7756 22.5546 16.7964L22.5217 16.8394C22.5038 16.8705 22.4948 16.9046 22.4948 16.9401C22.4963 16.9579 22.4993 16.9742 22.5008 16.992C22.5097 17.0276 22.5277 17.0587 22.5546 17.0853C22.6129 17.1313 22.6712 17.1787 22.7295 17.2246C22.7489 17.2454 22.7714 17.2602 22.7983 17.2676C22.8222 17.2795 22.8476 17.2854 22.876 17.2839C22.9029 17.2839 22.9299 17.2795 22.9538 17.2676C22.9807 17.2587 23.0031 17.2454 23.0225 17.2246C23.033 17.2098 23.045 17.195 23.0554 17.1817C23.0734 17.1505 23.0824 17.1165 23.0824 17.0809L23.0764 17.029Z" fill="white"/>
<path d="M24.6642 13.7557C24.6552 13.7201 24.6373 13.689 24.6103 13.6623C24.57 13.6105 24.5206 13.572 24.4683 13.5319C24.416 13.4934 24.3592 13.4682 24.2979 13.4445C24.271 13.4371 24.2455 13.4356 24.2186 13.4416C24.1917 13.4416 24.1663 13.4504 24.1424 13.4653C24.117 13.4786 24.096 13.4964 24.0811 13.5201C24.0631 13.5408 24.0497 13.5645 24.0437 13.5912C24.0332 13.6416 24.0347 13.6994 24.0631 13.7438L24.096 13.7868C24.1215 13.812 24.1514 13.8283 24.1842 13.8372C24.1708 13.8313 24.1573 13.8268 24.1439 13.8209C24.1753 13.8342 24.2052 13.8505 24.2336 13.8683C24.2635 13.8935 24.2919 13.9202 24.3158 13.9498C24.3352 13.9706 24.3577 13.9854 24.3846 13.9928C24.4085 14.0046 24.4339 14.0106 24.4623 14.0091C24.4892 14.0091 24.5162 14.0046 24.5401 13.9928C24.567 13.9839 24.5894 13.9706 24.6089 13.9498L24.6417 13.9068C24.6597 13.8757 24.6687 13.8416 24.6687 13.8061C24.6672 13.7883 24.6642 13.772 24.6627 13.7542L24.6642 13.7557Z" fill="white"/>
<path d="M31.9273 18.013C31.8974 17.967 31.8556 17.93 31.8002 17.9167C31.6597 17.8811 31.5207 17.8455 31.3801 17.81C31.3293 17.7966 31.271 17.804 31.2261 17.8307C31.1813 17.8559 31.1394 17.9063 31.1289 17.9567C31.1185 18.007 31.12 18.0648 31.1484 18.1093C31.1783 18.1552 31.2201 18.1923 31.2755 18.2056C31.416 18.2412 31.555 18.2767 31.6956 18.3123C31.7464 18.3256 31.8047 18.3182 31.8496 18.2916C31.8944 18.2664 31.9363 18.216 31.9468 18.1656C31.9572 18.1152 31.9557 18.0574 31.9273 18.013Z" fill="white"/>
<path d="M32.5896 18.8858C32.5313 18.7924 32.4072 18.7509 32.3086 18.8087C32.2742 18.8295 32.2383 18.8472 32.2024 18.865C32.186 18.8724 32.1695 18.8813 32.1531 18.8872C32.1426 18.8902 32.1292 18.8947 32.1262 18.8961C32.0559 18.9198 31.9826 18.9391 31.9079 18.951C31.9019 18.951 31.8944 18.9524 31.8884 18.9539C31.8705 18.9539 31.8511 18.9569 31.8331 18.9584C31.7957 18.9613 31.7584 18.9613 31.721 18.9613C31.6851 18.9613 31.6432 18.9628 31.6089 18.9539C31.6597 18.9673 31.5924 18.951 31.5819 18.9495C31.561 18.9465 31.5401 18.9421 31.5192 18.9361C31.4145 18.9124 31.2904 18.9717 31.2665 19.0828C31.2441 19.1881 31.3009 19.3081 31.4145 19.3333C31.7883 19.4163 32.1845 19.3585 32.5149 19.1673C32.6076 19.1125 32.6524 18.9821 32.5926 18.8887L32.5896 18.8858Z" fill="white"/>
<path d="M31.6328 13.3067C31.6163 13.2563 31.5849 13.2045 31.5356 13.1808C31.3951 13.1126 31.2545 13.043 31.114 12.9748C31.0662 12.9511 31.0123 12.9407 30.96 12.9555C30.9107 12.9689 30.8568 13.0059 30.8329 13.0518C30.809 13.0978 30.797 13.1541 30.8135 13.2045C30.8299 13.2549 30.8613 13.3067 30.9107 13.3304C31.0512 13.3986 31.1917 13.4682 31.3323 13.5364C31.3801 13.5601 31.4339 13.5705 31.4863 13.5557C31.5356 13.5423 31.5894 13.5053 31.6134 13.4593C31.6373 13.4134 31.6492 13.3571 31.6328 13.3067Z" fill="white"/>
<path d="M29.1435 12.3361L29.124 12.2872C29.1046 12.2546 29.0792 12.2294 29.0463 12.2102L28.9058 12.1405C28.8818 12.1257 28.8564 12.1183 28.8295 12.1168C28.8026 12.1109 28.7772 12.1124 28.7503 12.1198C28.7234 12.1257 28.6994 12.1376 28.6785 12.1568C28.6546 12.1716 28.6366 12.1924 28.6232 12.2176C28.6157 12.2339 28.6097 12.2502 28.6022 12.2665C28.5933 12.3006 28.5933 12.3361 28.6022 12.3702C28.6097 12.3865 28.6157 12.4028 28.6232 12.4191C28.6426 12.4517 28.668 12.4769 28.7009 12.4962L28.8415 12.5658C28.8654 12.5806 28.8908 12.588 28.9177 12.5895C28.9446 12.5954 28.97 12.594 28.997 12.5866C29.0239 12.5806 29.0478 12.5688 29.0687 12.5495C29.0926 12.5347 29.1106 12.5139 29.124 12.4888C29.13 12.4725 29.1375 12.4562 29.1435 12.4399C29.1524 12.4058 29.1524 12.3702 29.1435 12.3361Z" fill="white"/>
<path d="M12.9576 4.95817C12.6989 5.22934 12.3984 5.45457 12.0964 5.67536C11.8273 5.87245 11.5283 6.10065 11.1769 6.10361C10.9108 6.10657 10.9108 6.51555 11.1769 6.51259C11.5941 6.50963 11.9484 6.28735 12.2743 6.05026C12.6152 5.80132 12.9576 5.55237 13.2491 5.24712C13.4315 5.05597 13.14 4.76553 12.9576 4.95817Z" fill="white"/>
<path d="M27.1296 15.1723C27.1131 15.119 27.0802 15.076 27.0324 15.0464C26.8933 14.9604 26.7259 14.916 26.5629 14.9175C26.5091 14.9175 26.4538 14.9397 26.4164 14.9767C26.379 15.0138 26.3536 15.0701 26.3566 15.1219C26.3596 15.1753 26.376 15.2301 26.4164 15.2672C26.4568 15.3042 26.5061 15.3279 26.5629 15.3264C26.5838 15.3264 26.6063 15.3279 26.6272 15.3309C26.6676 15.3383 26.7079 15.3487 26.7468 15.362C26.7752 15.3739 26.8021 15.3872 26.829 15.4035C26.8724 15.4302 26.9352 15.4361 26.983 15.4228C27.0324 15.4094 27.0862 15.3724 27.1101 15.3264C27.134 15.2805 27.146 15.2242 27.1296 15.1738V15.1723Z" fill="white"/>
<path d="M25.9798 17.7077C25.7571 17.6395 25.5223 17.6055 25.2891 17.6084C25.1815 17.6084 25.0783 17.7018 25.0828 17.8129C25.0873 17.9226 25.174 18.0189 25.2891 18.0174C25.3758 18.0174 25.4625 18.0219 25.5478 18.0307C25.6584 18.047 25.7675 18.0693 25.8752 18.1034C25.9783 18.1359 26.1054 18.0619 26.1279 17.9567C26.1518 17.844 26.0905 17.7403 25.9798 17.7062V17.7077Z" fill="white"/>
<path d="M26.8933 18.0619C26.8874 18.0456 26.8799 18.0293 26.8739 18.013C26.8545 17.9804 26.829 17.9552 26.7962 17.9359C26.7737 17.9241 26.7513 17.9137 26.7289 17.9033C26.705 17.8885 26.6795 17.8811 26.6526 17.8796C26.6257 17.8737 26.6003 17.8752 26.5734 17.8826C26.5465 17.8885 26.5225 17.9003 26.5016 17.9196C26.4777 17.9344 26.4598 17.9552 26.4463 17.9804C26.4403 17.9967 26.4328 18.013 26.4269 18.0293C26.4179 18.0633 26.4179 18.0989 26.4269 18.133C26.4328 18.1493 26.4403 18.1656 26.4463 18.1819C26.4657 18.2145 26.4912 18.2397 26.524 18.2589C26.5465 18.2693 26.5689 18.2812 26.5913 18.2915C26.6152 18.3064 26.6407 18.3138 26.6676 18.3153C26.6945 18.3212 26.7199 18.3197 26.7468 18.3123C26.7737 18.3064 26.7976 18.2945 26.8186 18.2752C26.8425 18.2604 26.8604 18.2397 26.8739 18.2145C26.8799 18.1982 26.8874 18.1819 26.8933 18.1656C26.9023 18.1315 26.9023 18.0959 26.8933 18.0619Z" fill="white"/>
<path d="M8.95669 29.8334C8.95071 29.8067 8.93875 29.783 8.91931 29.7623C8.90436 29.7386 8.88343 29.7208 8.85801 29.7075C8.81166 29.6837 8.75485 29.6719 8.70402 29.6867C8.65169 29.703 8.60384 29.7341 8.57693 29.783C8.5246 29.8764 8.47228 29.9712 8.41995 30.0646C8.39453 30.1105 8.38706 30.1668 8.40051 30.2172C8.40649 30.2439 8.41845 30.2676 8.43789 30.2883C8.45284 30.312 8.47377 30.3298 8.49919 30.3432C8.54554 30.3669 8.60235 30.3787 8.65318 30.3624C8.70551 30.3461 8.75335 30.315 8.78027 30.2661C8.83259 30.1727 8.88492 30.0779 8.93725 29.9846C8.96267 29.9386 8.97014 29.8823 8.95669 29.8319V29.8334Z" fill="white"/>
<path d="M34.0295 25.668C33.6557 25.7762 33.2954 25.9288 32.9664 26.1333C32.6256 26.3452 32.334 26.6105 32.0425 26.8831C31.7659 27.1424 31.4743 27.4092 31.108 27.5381C30.9765 27.584 30.8434 27.6137 30.7074 27.6329C30.5534 27.5662 30.3994 27.504 30.2409 27.4477C29.0777 27.0313 27.8472 26.9365 26.6243 27.0906C25.9559 27.175 25.2966 27.3232 24.6447 27.4921C24.3158 27.5781 23.9884 27.667 23.6625 27.7604C23.4307 27.827 23.1855 27.9263 23.0375 28.1264C22.9702 28.2182 22.9314 28.3279 22.9374 28.4435C22.9448 28.5917 23.036 28.6998 23.0943 28.8287C23.202 29.0629 23.1437 29.3415 23.0256 29.5593C22.749 30.072 22.1509 30.2928 21.6486 30.5254C20.4196 31.0944 19.3192 31.9257 18.4386 32.9482C18.4311 32.9556 18.4267 32.9645 18.4222 32.9719C18.4087 32.9778 18.3953 32.9838 18.3818 32.9912C18.1471 33.1156 18.3519 33.4713 18.5866 33.3468C18.7885 33.2401 19.0157 33.2549 19.237 33.2668C19.5001 33.2816 19.7618 33.2905 20.0249 33.2831C20.5392 33.2697 21.052 33.212 21.5619 33.1423C22.5307 33.0075 23.495 32.8311 24.4504 32.6222C26.3671 32.2014 28.2524 31.6338 30.0824 30.9285C30.8509 30.6321 31.6104 30.312 32.3579 29.9683C32.5702 30.1076 32.7825 30.2483 32.9993 30.3832C33.1025 30.4469 33.2161 30.3906 33.2804 30.3061C33.723 29.7238 33.9128 29.0066 34.0369 28.2997C34.1835 27.4714 34.2986 26.6386 34.4182 25.8058C34.4541 25.5613 34.0967 25.4532 34.028 25.6651L34.0295 25.668Z" fill="white"/>
<path d="M27.4899 51.0086C20.9653 51.542 15.7878 51.0782 13.273 50.7522C13.2446 50.7478 13.2177 50.7448 13.1893 50.7418C12.7079 50.6766 12.3282 50.6203 12.062 50.5774C12.0501 50.5774 12.0396 50.5729 12.0291 50.5714C11.7525 50.527 11.609 50.4988 11.609 50.4988L11.7705 49.2556L11.7765 49.2067L12.4238 44.1907L12.7363 41.762L12.7662 41.5383V41.522L12.8021 41.2553C13.0488 41.199 13.2925 41.1456 13.5347 41.0908C14.2703 40.9278 14.9834 40.7722 15.6727 40.624C15.6861 40.624 15.7011 40.6196 15.713 40.6151C16.5413 40.4403 17.3367 40.2758 18.0917 40.1246C18.3235 40.0772 18.5522 40.0313 18.775 39.9868C19.3536 39.8727 19.9068 39.7646 20.4301 39.6653C24.2814 38.9333 26.6467 38.5954 26.6467 38.5954L26.7483 40.1098L26.8515 41.6198L27.4884 51.0071L27.4899 51.0086Z" fill="white"/>
<path d="M37.9361 23.9195C37.8001 23.6202 37.6102 23.3475 37.4592 23.0571C37.1437 22.4495 37.0032 21.7753 36.8582 21.1129C36.7879 20.7899 36.7161 20.4654 36.6249 20.1468C36.5412 19.8519 36.453 19.5155 36.29 19.2518C36.1346 18.9984 35.8445 18.8784 35.6023 19.0977C35.3885 19.2903 35.2136 19.5526 35.0566 19.7912C34.7411 20.2713 34.5079 20.8077 34.3599 21.3604C34.019 22.6333 34.1311 24.0099 34.7127 25.1983C33.8904 26.2667 33.1952 27.421 32.6465 28.6524C31.4818 29.1785 30.1572 29.0866 28.9103 29.1992C27.4824 29.3281 26.1458 29.8675 24.7987 30.3209C23.4846 30.764 22.1494 31.173 20.8726 31.7153C19.7094 32.2103 18.5836 32.8548 17.7165 33.7825C16.8942 34.6627 16.3006 35.7799 16.2214 36.9847C15.6129 36.6513 15.0059 36.3134 14.4019 35.9726C14.1731 36.0926 13.91 36.14 13.6543 36.1682C13.5317 36.1815 13.4091 36.1889 13.285 36.1963C13.2551 36.1978 13.2252 36.2008 13.1953 36.2038C13.1759 36.2067 13.155 36.2112 13.1355 36.2126C13.2611 37.6248 13.2462 39.0459 13.0907 40.4551C13.0742 40.6003 13.2327 40.6699 13.3493 40.6536C16.3739 40.221 19.4927 40.1498 22.5262 40.5321C23.3216 40.6329 24.12 40.7974 24.8376 41.1663C25.0275 41.2642 25.1979 41.0522 25.1321 40.9026C25.1008 40.4566 25.0963 40.0105 25.1187 39.566C25.7795 39.1185 26.5121 38.7762 27.2447 38.4591C28.1493 38.0679 29.0568 37.6841 29.9478 37.2603C31.715 36.4186 33.4329 35.4584 35.0013 34.2878C35.8744 33.6358 36.7012 32.9245 37.4562 32.1406C37.4951 32.1006 37.5115 32.0561 37.513 32.0117C37.5399 31.9806 37.5579 31.9406 37.5624 31.8917C37.7044 30.3328 37.8449 28.7754 37.987 27.2165C38.0229 26.8209 38.0587 26.4267 38.0946 26.0311C38.129 25.6577 38.1754 25.2828 38.1619 24.9064C38.1499 24.5626 38.0782 24.2336 37.9346 23.921L37.9361 23.9195Z" fill="#01B7F1"/>
<path d="M37.1736 22.3117C37.1198 22.2169 36.9882 22.1769 36.8926 22.2347C36.8447 22.2628 36.8507 22.2613 36.8058 22.2732C36.8014 22.2732 36.773 22.2806 36.767 22.2821C36.752 22.2836 36.7371 22.285 36.7221 22.285C36.7042 22.285 36.6862 22.285 36.6683 22.2836C36.6294 22.2806 36.6698 22.2865 36.6339 22.2776C36.613 22.2717 36.5906 22.2673 36.5696 22.2613C36.5696 22.2613 36.5337 22.2495 36.5307 22.2495C36.4949 22.2347 36.4605 22.2154 36.4276 22.1961C36.4141 22.1887 36.4022 22.1798 36.3887 22.1709C36.3857 22.168 36.3603 22.1472 36.3558 22.1443C36.2855 22.082 36.2422 22.0302 36.1973 21.9605C36.1002 21.8138 36.0314 21.6493 35.9701 21.4967C35.8864 21.2863 35.8041 21.0774 35.7204 20.8669C35.68 20.7647 35.5844 20.6906 35.4677 20.7202C35.3691 20.7454 35.2794 20.8669 35.3197 20.9707C35.4124 21.2033 35.5021 21.436 35.5963 21.6686C35.683 21.882 35.7742 22.0894 35.9163 22.2717C36.1839 22.617 36.6877 22.8333 37.0959 22.5888C37.1916 22.5325 37.2304 22.408 37.1736 22.3102V22.3117Z" fill="white"/>
<path d="M17.1573 34.8998C17.1947 34.8642 17.2171 34.8064 17.2171 34.7545C17.2171 34.7027 17.1947 34.6449 17.1573 34.6093C17.1184 34.5738 17.0661 34.5471 17.0108 34.55C16.9555 34.553 16.9061 34.5708 16.8643 34.6093C16.7372 34.7293 16.6445 34.8894 16.6041 35.0583C16.5922 35.1087 16.5982 35.165 16.6236 35.2109C16.649 35.2554 16.6998 35.2969 16.7507 35.3073C16.8015 35.3176 16.8598 35.3161 16.9046 35.288C16.951 35.2584 16.9899 35.2154 17.0018 35.162C17.0078 35.1339 17.0183 35.1072 17.0272 35.0805C17.0452 35.0405 17.0676 35.002 17.093 34.965C17.1125 34.9412 17.1319 34.919 17.1543 34.8983L17.1573 34.8998Z" fill="white"/>
<path d="M35.8176 18.9465C35.3108 19.071 34.8996 19.6104 34.6424 20.0312C34.3569 20.4965 34.1745 21.0255 34.0803 21.5604C33.862 22.8022 34.1087 24.0558 34.3614 25.2724C34.3524 25.2798 34.3419 25.2857 34.3345 25.2931C34.0429 25.545 33.8426 25.9303 33.6437 26.2533C33.1952 26.9794 32.808 27.7426 32.4835 28.5309C32.4417 28.6346 32.4551 28.7487 32.5613 28.811C32.648 28.8613 32.8005 28.8362 32.8424 28.7339C33.1429 28.0034 33.4957 27.2951 33.9039 26.6179C34.0908 26.3067 34.2762 25.9644 34.5169 25.6932C34.626 25.5702 34.7456 25.4887 34.9116 25.4635C35.0999 25.4354 35.2868 25.4443 35.4692 25.382C35.7204 25.2961 35.6158 24.9004 35.3646 24.9864C35.1837 25.0486 34.9938 25.0368 34.8069 25.0679C34.7845 25.0723 34.765 25.0783 34.7426 25.0827C34.5169 23.9995 34.2926 22.8763 34.4615 21.7709C34.5348 21.2922 34.6753 20.821 34.9071 20.3942C35.0207 20.1838 35.1553 19.9853 35.3137 19.806C35.4767 19.6237 35.6741 19.4029 35.9208 19.3422C36.1794 19.2784 36.0747 18.8828 35.8161 18.9465H35.8176Z" fill="white"/>
<path d="M32.5493 28.4538C28.2823 28.9651 24.1663 30.3506 20.1924 31.9272C19.6541 32.1406 19.1278 32.3762 18.6494 32.7037C18.1994 33.0134 17.7942 33.3809 17.4444 33.8002C17.2769 34.0018 17.567 34.2937 17.7359 34.0892C18.3773 33.3186 19.1817 32.7822 20.1071 32.3984C21.07 31.9998 22.0552 31.6442 23.036 31.2915C24.9961 30.5877 26.9861 29.9564 29.0164 29.4881C30.1811 29.2199 31.3592 29.0051 32.5463 28.8628C32.808 28.8317 32.811 28.4212 32.5463 28.4538H32.5493Z" fill="white"/>
</svg>
