<svg width="16" height="16" viewBox="0 0 16 16" fill="none" xmlns="http://www.w3.org/2000/svg">
<g clip-path="url(#clip0_2326_343)">
<path d="M3.1175 13.7977L2.41425 13.0947V13.6085L3.1175 14.3115V13.7977ZM4.9925 14.836V14.289H3.625V14.3057L3.19525 13.876V14.3897L3.625 14.8197V14.836H4.9925ZM5.07025 14.289H5.81275V14.836H5.07025V14.289ZM6.85125 14.914H7.7735V15.5H6.85125V14.914ZM3.9765 14.914H5.461V15.5H3.9765V14.914ZM2.336 13.0165L1.47675 12.1572V12.671L2.336 13.5307V13.0165ZM5.539 14.914H6.77325V15.5H5.539V14.914ZM1.3985 12.079L0.77375 11.454V11.9677L1.3985 12.5932V12.079ZM0.5 12.375L1.086 12.961V12.3915L0.5 11.8057V12.375ZM0.69525 11.376L0.5 11.1807V11.6942L0.69525 11.8902V11.376ZM1.71125 13.0165L1.164 12.4697V13.039L1.789 13.664L1.71125 13.586V13.0165ZM1.789 13.0947V13.664L2.80475 14.6797V14.1102L1.789 13.0947Z" fill="white"/>
<path d="M3.625 14.9307L2.883 14.1885V14.7577L2.80475 14.6798L3.625 15.5H3.8985V14.914H3.625V14.9307ZM11.9452 14.289H13.2735V14.836H11.9452V14.289ZM11.4377 14.914H12.7855V15.5H11.4377V14.914ZM14.133 14.914H15.5V15.5H14.133V14.914ZM12.8632 14.914H14.0548V15.5H12.8632V14.914ZM13.3515 14.289H14.5235V14.836H13.3515V14.289ZM14.6018 14.289H15.5V14.836H14.6018V14.289ZM11.0077 14.289H11.8673V14.836H11.0077V14.289ZM8.664 14.914H10.0315V15.5H8.664V14.914ZM8.3125 14.289H9.5235V14.836H8.3125V14.289ZM9.6015 14.289H10.9298V14.836H9.6015V14.289ZM10.1095 14.914H11.3595V15.5H10.1095V14.914ZM7.85175 14.914H8.586V15.5H7.85175V14.914ZM12.3752 0.5H0.5V11.0697L1.086 11.6558V11.086L1.16425 11.1643V11.7335L2.02375 12.5933V12.0235L2.102 12.1018V12.671L2.649 13.218V12.649L2.727 12.727V13.2968L3.6255 14.1947V14.2113H4.52425V13.6257H4.60225V14.2113H5.8135V9.25H8.31325V14.211H9.0555V13.6255H9.13375V14.211H10.462V13.6255H10.5402V14.211H11.556V13.6255H11.634V14.211H12.7865V13.6255H12.8645V14.211H14.056V13.6255H14.1342V14.211H15.5V3.625L12.3752 0.5ZM12.1163 1.125L13.9913 3H3.88375L2.00875 1.125H12.1163ZM0.8125 6.4375L1.4375 7.0625V8.3125L0.8125 7.6875V6.4375ZM5.56275 13.3755H3.729L0.75 10.3965V8.6035L3.44825 11.3018L3.5215 11.375H5.56275V13.3755ZM1.66025 7.412L1.75 7.375L1.8395 7.58875C1.8395 7.58875 1.813 7.6805 1.863 7.87925C1.887 7.9735 1.90625 8.078 1.90625 8.185C1.90625 8.289 1.8805 8.333 1.86625 8.40525C1.83925 8.538 1.81175 8.671 1.75 8.60975C1.6885 8.54925 1.661 8.36225 1.63375 8.17575C1.6195 8.07525 1.594 7.9805 1.594 7.877C1.594 7.7695 1.61325 7.70375 1.63725 7.65625C1.68725 7.55675 1.66025 7.412 1.66025 7.412ZM2.06275 8.9375V7.6875L2.6875 8.3125V9.5625L2.06275 8.9375ZM2.9105 8.662L3.00025 8.625L3.08975 8.83875C3.08975 8.83875 3.06275 8.931 3.113 9.12925C3.13675 9.224 3.15625 9.328 3.15625 9.4355C3.15625 9.539 3.1305 9.583 3.1165 9.65525C3.08925 9.788 3.06175 9.921 3.00025 9.85975C2.93825 9.79925 2.911 9.61225 2.88375 9.42575C2.86925 9.32525 2.84375 9.2305 2.84375 9.127C2.84375 9.0195 2.86325 8.95375 2.887 8.90625C2.93725 8.80675 2.9105 8.662 2.9105 8.662ZM3.3125 10.1875V8.9375L3.625 9.25H4.25V10.5H3.625L3.3125 10.1875ZM4.76275 9.377L5.03125 9.25L5.3 9.377C5.3 9.377 5.2195 9.49675 5.36975 9.6475C5.442 9.71925 5.5 9.80575 5.5 9.914C5.5 10.019 5.42375 10.0893 5.38025 10.1768C5.29925 10.3385 5.21575 10.5 5.03125 10.5C4.84675 10.5 4.7635 10.3385 4.68225 10.1768C4.63875 10.0893 4.5625 10.019 4.5625 9.914C4.5625 9.8055 4.62075 9.71925 4.6925 9.6475C4.84325 9.4965 4.76275 9.377 4.76275 9.377ZM15.25 13.3755H8.5625V11.375H15.25V13.3755ZM8.82525 9.377L9.094 9.25L9.36225 9.377C9.36225 9.377 9.28175 9.49675 9.4325 9.6475C9.504 9.71925 9.56275 9.80575 9.56275 9.914C9.56275 10.019 9.486 10.0893 9.44275 10.1768C9.3615 10.3385 9.278 10.5 9.094 10.5C8.9095 10.5 8.826 10.3385 8.745 10.1768C8.70125 10.0893 8.62525 10.019 8.62525 9.914C8.62525 9.8055 8.68325 9.71925 8.75525 9.6475C8.90575 9.4965 8.82525 9.377 8.82525 9.377ZM9.875 10.5V9.25H13.3127V10.5H9.875ZM13.8255 9.377L14.0938 9.25L14.3623 9.377C14.3623 9.377 14.2817 9.49675 14.4325 9.6475C14.504 9.71925 14.5625 9.80575 14.5625 9.914C14.5625 10.019 14.4862 10.0893 14.4427 10.1768C14.3617 10.3385 14.278 10.5 14.0938 10.5C13.9095 10.5 13.8258 10.3385 13.7448 10.1768C13.701 10.0893 13.625 10.019 13.625 9.914C13.625 9.8055 13.6833 9.71925 13.7552 9.6475C13.906 9.4965 13.8255 9.377 13.8255 9.377ZM15.25 10.5H14.875V9.25H15.25V10.5ZM15.25 8.625H3.625L0.8125 5.81225V4.56225L3.625 7.375H15.25V8.625Z" fill="white"/>
<path d="M6.4375 11.75H7.68775L8 11.4375L7.68775 11.125H6.4375L6.125 11.4375L6.4375 11.75Z" fill="white"/>
<path d="M7.6875 13C7.86009 13 8 12.8601 8 12.6875C8 12.5149 7.86009 12.375 7.6875 12.375C7.51491 12.375 7.375 12.5149 7.375 12.6875C7.375 12.8601 7.51491 13 7.6875 13Z" fill="white"/>
<path d="M6.4375 13C6.61009 13 6.75 12.8601 6.75 12.6875C6.75 12.5149 6.61009 12.375 6.4375 12.375C6.26491 12.375 6.125 12.5149 6.125 12.6875C6.125 12.8601 6.26491 13 6.4375 13Z" fill="white"/>
<path d="M6.125 10.3595C6.125 10.4015 6.1555 10.4298 6.17275 10.4645C6.20525 10.5295 6.23875 10.594 6.3125 10.594C6.38625 10.594 6.42 10.5295 6.45225 10.4645C6.4695 10.4298 6.50025 10.4015 6.50025 10.3595C6.50025 10.316 6.4765 10.2813 6.448 10.253C6.38775 10.1925 6.42 10.1445 6.42 10.1445L6.3125 10.0938L6.20475 10.1445C6.20475 10.1445 6.2375 10.1923 6.177 10.253C6.14875 10.2813 6.125 10.316 6.125 10.3595ZM6.625 10.3595C6.625 10.4015 6.65525 10.4298 6.67275 10.4645C6.7055 10.5295 6.73875 10.594 6.8125 10.594C6.886 10.594 6.91975 10.5295 6.952 10.4645C6.9695 10.4298 7 10.4015 7 10.3595C7 10.316 6.9765 10.2813 6.948 10.253C6.88775 10.1925 6.92 10.1445 6.92 10.1445L6.8125 10.0938L6.70525 10.1445C6.70525 10.1445 6.73725 10.1923 6.677 10.253C6.6485 10.2813 6.625 10.316 6.625 10.3595ZM7.125 10.3595C7.125 10.4015 7.15575 10.4298 7.173 10.4645C7.20525 10.5295 7.239 10.594 7.3125 10.594C7.3865 10.594 7.41975 10.5295 7.4525 10.4645C7.46975 10.4298 7.50025 10.4015 7.50025 10.3595C7.50025 10.316 7.4765 10.2813 7.448 10.253C7.38775 10.1925 7.42 10.1445 7.42 10.1445L7.3125 10.0938L7.205 10.1445C7.205 10.1445 7.23725 10.1923 7.177 10.253C7.14875 10.2813 7.125 10.316 7.125 10.3595ZM7.625 10.3595C7.625 10.4015 7.6555 10.4298 7.673 10.4645C7.70525 10.5295 7.739 10.594 7.8125 10.594C7.886 10.594 7.91975 10.5295 7.95225 10.4645C7.96975 10.4298 8 10.4015 8 10.3595C8 10.316 7.9765 10.2813 7.948 10.253C7.88775 10.1925 7.92025 10.1445 7.92025 10.1445L7.8125 10.0938L7.70525 10.1445C7.70525 10.1445 7.73725 10.1923 7.677 10.253C7.6485 10.2813 7.625 10.316 7.625 10.3595Z" fill="white"/>
</g>
<defs>
<clipPath id="clip0_2326_343">
<rect width="16" height="16" fill="white"/>
</clipPath>
</defs>
</svg>
