<svg width="24" height="24" viewBox="0 0 24 24" fill="none" xmlns="http://www.w3.org/2000/svg">
<path d="M1 21V8.725C0.7 8.54167 0.458333 8.30433 0.275 8.013C0.0916667 7.72167 0 7.384 0 7C0 6.616 0.2 6.14933 0.6 5.6C1 5.05067 1.46667 4.51733 2 4C2.53333 4.51667 3 5.05 3.4 5.6C3.8 6.15 4 6.61667 4 7C4 7.38333 3.90833 7.721 3.725 8.013C3.54167 8.305 3.3 8.542 3 8.724V13H5V9.05H6.55C6.36667 8.76667 6.229 8.45833 6.137 8.125C6.045 7.79167 5.99933 7.45 6 7.1C6 6.43333 6.15833 5.81667 6.475 5.25C6.79167 4.68333 7.21667 4.21667 7.75 3.85L12 1L16.25 3.85C16.7833 4.21667 17.2083 4.68333 17.525 5.25C17.8417 5.81667 18 6.43333 18 7.1C18 7.45 17.9543 7.79167 17.863 8.125C17.7717 8.45833 17.634 8.76667 17.45 9.05H19V13H21V8.725C20.7 8.54167 20.4583 8.30433 20.275 8.013C20.0917 7.72167 20 7.384 20 7C20 6.616 20.2 6.14933 20.6 5.6C21 5.05067 21.4667 4.51733 22 4C22.5333 4.51667 23 5.05 23.4 5.6C23.8 6.15 24 6.61667 24 7C24 7.38333 23.9083 7.721 23.725 8.013C23.5417 8.305 23.3 8.54233 23 8.725V21H13V16H11V21H1ZM9.9 9H14.1C14.6333 9 15.0833 8.81667 15.45 8.45C15.8167 8.08333 16 7.63333 16 7.1C16 6.76667 15.925 6.46233 15.775 6.187C15.625 5.91167 15.4167 5.68267 15.15 5.5L12 3.4L8.85 5.5C8.58333 5.68333 8.375 5.91267 8.225 6.188C8.075 6.46333 8 6.76733 8 7.1C8 7.63333 8.18333 8.08333 8.55 8.45C8.91667 8.81667 9.36667 9 9.9 9ZM3 19H9V14H15V19H21V15H17V11H7V15H3V19Z" fill="white"/>
</svg>
