<svg width="37" height="38" viewBox="0 0 37 38" fill="none" xmlns="http://www.w3.org/2000/svg">
<path d="M18.3857 10.7207C20.3617 8.45658 22.1595 6.6595 21.3156 5.74908C20.4717 4.83867 6.81863 9.90771 7.58892 11.2314C8.04808 12.0199 20.2469 20.8731 21.4502 21.5848C22.8633 22.4208 25.1338 21.4423 24.9335 19.8875L23.0913 5.62875C23.0913 5.62875 24.0239 6.88117 24.3121 7.74646M27.7748 20.9847C27.5753 19.4307 25.9326 6.72521 25.9326 6.72521C25.9326 6.72521 26.8652 7.97762 27.1534 8.84371" stroke="#01B7F1" stroke-width="0.5" stroke-linecap="round" stroke-linejoin="round"/>
<path d="M22.4699 26.8137C22.4699 21.8912 20.8153 10.9717 20.8153 10.9717C20.8153 10.9717 21.7479 12.2233 22.0368 13.0894M17.4721 11.5164C17.1839 10.6503 16.2521 9.39787 16.2521 9.39787C16.2521 9.39787 16.7216 15.1042 19.4512 16.2363C12.1315 12.6904 8.64737 24.2939 5.48466 20.8976C3.22762 18.4751 7.28174 15.071 7.28174 15.071" stroke="#01B7F1" stroke-width="0.5" stroke-linecap="round" stroke-linejoin="round"/>
<path d="M30.0168 11.1071C29.7279 10.2418 28.7961 8.98937 28.7961 8.98937C28.7961 8.98937 30.4 23.1562 30.742 26.8137C30.9043 28.5562 27.6751 29.355 26.4765 26.4258C25.2779 23.4967 26.3768 22.663 27.109 22.663C27.8413 22.663 29.0407 25.1045 27.109 26.2366C25.1774 27.3687 21.9592 28.1905 20.9831 29.3217C20.007 30.453 18.297 33.0505 17.1649 33.0505C16.0328 33.0505 13.8138 31.8305 16.344 26.8137M32.8138 24.6604C32.6135 22.0637 31.2598 11.5425 31.2598 11.5425C31.2598 11.5425 32.1923 12.7941 32.4805 13.6602M11.0778 7.08067C12.4426 6.23121 15.2562 5.69921 16.7216 4.5505M7.10996 21.5278C5.28992 23.5283 5.80054 27.5896 7.9325 26.9246C8.72812 26.676 9.68604 25.0214 11.2836 24.3057C13.965 23.1056 17.3945 22.4928 17.1879 20.577C16.9219 18.1022 14.5469 16.6622 14.5469 16.6622" stroke="#01B7F1" stroke-width="0.5" stroke-linecap="round" stroke-linejoin="round"/>
<path d="M20.4393 22.9734C19.3016 22.4707 18.9295 21.8912 18.9295 21.8912C19.851 23.9495 20.5612 25.2035 20.5841 26.1915C20.6071 27.1795 15.5119 30.3367 13.3245 30.3367C10.7785 30.3367 8.91496 28.5063 9.63855 25.4679M8.02355 11.6652C6.34996 12.441 5.31209 16.112 6.58825 15.7415" stroke="#01B7F1" stroke-width="0.5" stroke-linecap="round" stroke-linejoin="round"/>
<path d="M19 36.0208C28.4004 36.0208 36.0208 28.4003 36.0208 19C36.0208 9.59965 28.4004 1.97917 19 1.97917C9.59966 1.97917 1.97917 9.59965 1.97917 19C1.97917 28.4003 9.59966 36.0208 19 36.0208Z" stroke="#01B7F1" stroke-width="0.5" stroke-linecap="round" stroke-linejoin="round"/>
</svg>
